<?xml version="1.0" encoding="UTF-8" standalone="no"?><!DOCTYPE svg PUBLIC "-//W3C//DTD SVG 1.1//EN" "http://www.w3.org/Graphics/SVG/1.1/DTD/svg11.dtd"><svg width="100%" height="100%" viewBox="0 0 360 348" version="1.1" xmlns="http://www.w3.org/2000/svg" xmlns:xlink="http://www.w3.org/1999/xlink" xml:space="preserve" style="fill-rule:evenodd;clip-rule:evenodd;stroke-linejoin:round;stroke-miterlimit:1.41421;"><g><path d="M54.092,291.434c-3.574,3.386 -5.231,4.956 -5.318,8.041c-0.058,2.211 0.741,4.284 2.333,5.965c1.593,1.681 3.62,2.591 5.83,2.652c3.086,0.081 4.743,-1.489 8.317,-4.875c3.575,-3.386 5.232,-4.956 5.318,-8.041c0.058,-2.211 -0.741,-4.284 -2.333,-5.965c-1.592,-1.681 -3.62,-2.591 -5.83,-2.652c-3.086,-0.081 -4.743,1.489 -8.317,4.875Zm1.701,1.796c3.527,-3.342 4.776,-4.3 6.874,-4.266c1.452,0.017 2.911,0.656 3.966,1.769c1.054,1.112 1.613,2.604 1.551,4.055c-0.08,2.097 -1.104,3.292 -4.631,6.633c-3.527,3.342 -4.775,4.3 -6.873,4.266c-1.453,-0.017 -2.912,-0.656 -3.966,-1.769c-1.054,-1.112 -1.614,-2.604 -1.552,-4.055c0.08,-2.097 1.104,-3.292 4.631,-6.633Zm-22.375,-21.366c-3.467,2.326 -4.025,6.228 -1.663,9.749l4.812,7.173l19.272,-12.929l-1.377,-2.054l-7.933,5.321l-3.434,-5.118c-2.361,-3.521 -6.21,-4.468 -9.677,-2.142Zm1.378,2.054c2.546,-1.708 4.972,-0.901 6.589,1.51l3.307,4.929l-7.666,5.142l-3.306,-4.93c-1.617,-2.41 -1.47,-4.943 1.076,-6.651Zm1.337,-31.852l-1.997,0.953l5.142,10.767l-7.564,3.612l-4.383,-9.178l-1.997,0.954l4.383,9.179l-7.387,3.527l-5.142,-10.767l-1.997,0.954l6.208,12.999l20.942,-10.001l-6.208,-12.999Zm-27.609,-15.474l-2.115,0.649l4.668,15.205l2.115,-0.65l-1.971,-6.42l20.07,-6.161l-0.726,-2.365l-20.07,6.162l-1.971,-6.42Zm8.013,-29.063l-15.381,2.289l0.365,2.451l15.187,-2.261c3.482,-0.518 6.103,1.366 6.602,4.719c0.499,3.354 -1.464,5.887 -4.946,6.406l-15.188,2.26l0.365,2.451l15.381,-2.29c4.579,-0.681 7.272,-4.51 6.581,-9.153c-0.692,-4.643 -4.388,-7.554 -8.966,-6.872Zm0.511,-25.755c-1.923,-0.007 -3.524,0.671 -4.604,1.938c-0.852,0.975 -1.312,2.049 -1.647,4.232l-0.401,2.541c-0.2,1.205 -0.662,2.41 -1.284,3.124c-0.622,0.715 -1.536,1.038 -2.677,1.033c-2.575,-0.01 -4.296,-1.81 -4.284,-4.907c0.01,-2.445 0.7,-3.974 2.01,-5.403l-1.591,-1.604c-1.801,1.981 -2.559,3.935 -2.57,6.901c-0.017,4.597 2.579,7.443 6.523,7.459c1.858,0.007 3.295,-0.574 4.343,-1.744c0.884,-1.007 1.476,-2.439 1.777,-4.263l0.434,-2.705c0.268,-1.694 0.466,-2.28 1.121,-3.027c0.655,-0.747 1.699,-1.102 2.905,-1.097c2.706,0.011 4.295,2.103 4.282,5.494c-0.01,2.608 -0.637,4.398 -2.568,6.314l1.689,1.702c2.193,-2.176 3.082,-4.454 3.096,-7.942c0.019,-4.825 -2.479,-8.03 -6.554,-8.046Zm9.832,-25.131l-22.834,-4.169l-0.445,2.437l10.23,1.868l-1.979,10.84l-10.23,-1.868l-0.445,2.437l22.834,4.169l0.445,-2.437l-10.423,-1.903l1.979,-10.84l10.423,1.903l0.445,-2.437Zm7.873,-25.943l-24.712,0.532l-0.676,1.974l19.188,15.599l0.856,-2.499l-4.364,-3.458l3.285,-9.592l5.567,-0.057l0.856,-2.499Zm-8.687,2.539l-2.809,8.204l-10.182,-8.104l12.991,-0.1Zm18.795,-22.465l-1.941,-1.063l-5.699,10.408l-18.414,-10.084l-1.188,2.17l20.354,11.147l6.888,-12.578Zm13.036,-18.837l-1.768,-1.331l-7.137,9.48l-16.772,-12.629l-1.488,1.977l18.54,13.959l8.625,-11.456Zm7.293,-8.308l-16.745,-16.067l-1.712,1.785l16.745,16.067l1.712,-1.785Zm4.22,-32.576l-1.443,-1.677l-12.055,10.375l1.443,1.677l5.09,-4.381l13.695,15.913l1.875,-1.614l-13.695,-15.913l5.09,-4.38Zm30.129,-4.132l-8.03,-13.317l-2.118,1.278l7.929,13.148c1.818,3.016 1.086,6.16 -1.818,7.911c-2.904,1.752 -5.999,0.915 -7.817,-2.1l-7.929,-13.149l-2.118,1.277l8.03,13.317c2.39,3.964 6.955,4.975 10.977,2.55c4.021,-2.425 5.285,-6.951 2.894,-10.915Zm23.82,-9.658c-0.743,-1.774 -1.991,-2.984 -3.577,-3.486c-1.229,-0.404 -2.398,-0.41 -4.54,0.134l-2.497,0.621c-1.189,0.286 -2.478,0.331 -3.379,0.037c-0.901,-0.295 -1.555,-1.011 -1.996,-2.063c-0.995,-2.376 -0.008,-4.663 2.85,-5.86c2.256,-0.945 3.934,-0.905 5.762,-0.257l0.854,-2.09c-2.524,-0.884 -4.618,-0.818 -7.355,0.328c-4.242,1.777 -5.848,5.273 -4.324,8.912c0.718,1.714 1.812,2.811 3.296,3.321c1.271,0.422 2.822,0.409 4.62,-0.026l2.66,-0.654c1.665,-0.415 2.282,-0.461 3.226,-0.149c0.944,0.311 1.678,1.135 2.144,2.248c1.045,2.496 -0.263,4.776 -3.391,6.086c-2.407,1.008 -4.301,1.13 -6.816,0.097l-0.907,2.219c2.855,1.169 5.298,1.099 8.517,-0.249c4.452,-1.865 6.427,-5.409 4.853,-9.169Zm43.344,-3.025l-6.755,-9.777c2.901,-0.981 4.668,-3.433 4.254,-6.798c-0.49,-3.979 -3.604,-6.058 -7.616,-5.565l-8.833,1.089l2.837,23.036l2.459,-0.303l-1.259,-10.224l5.532,-0.682l6.501,9.579l2.88,-0.355Zm-4.956,-16.239c0.346,2.815 -1.391,4.441 -4.077,4.772l-6.147,0.757l-1.04,-8.445l6.147,-0.757c2.686,-0.33 4.77,0.858 5.117,3.673Zm30.509,16.16l-7.826,-23.451l-2.085,-0.06l-9.217,22.951l2.64,0.077l2.011,-5.192l10.134,0.297l1.704,5.3l2.639,0.078Zm-4.997,-7.55l-8.668,-0.254l4.725,-12.124l3.943,12.378Zm28.64,11.439l4.739,-22.718l-2.422,-0.505l-2.123,10.18l-10.791,-2.25l2.124,-10.18l-2.422,-0.505l-4.738,22.717l2.421,0.506l2.163,-10.372l10.791,2.25l-2.163,10.372l2.421,0.505Zm29.032,-2.751c1.71,-4.617 2.502,-6.758 1.216,-9.563c-0.925,-2.009 -2.558,-3.516 -4.73,-4.319c-2.171,-0.804 -4.391,-0.724 -6.401,0.198c-2.804,1.291 -3.596,3.432 -5.306,8.049c-1.709,4.618 -2.502,6.758 -1.215,9.564c0.925,2.008 2.558,3.515 4.729,4.319c2.172,0.804 4.392,0.724 6.402,-0.198c2.804,-1.292 3.596,-3.432 5.305,-8.05Zm-2.319,-0.858c-1.687,4.556 -2.383,5.967 -4.28,6.864c-1.311,0.628 -2.902,0.699 -4.339,0.167c-1.438,-0.532 -2.599,-1.623 -3.185,-2.952c-0.855,-1.916 -0.465,-3.441 1.222,-7.997c1.687,-4.556 2.383,-5.967 4.28,-6.864c1.31,-0.628 2.902,-0.699 4.339,-0.167c1.438,0.532 2.599,1.622 3.185,2.952c0.855,1.916 0.465,3.44 -1.222,7.997Zm9.559,17.294l11.147,-20.355l-2.17,-1.188l-11.146,20.355l2.169,1.188Zm32.567,-4.406l1.245,-1.83l-13.15,-8.947l-1.245,1.83l5.552,3.778l-11.809,17.357l2.045,1.392l11.809,-17.358l5.553,3.778Zm19.085,16.32l1.493,-1.633l-11.735,-10.735l-1.494,1.633l4.956,4.532l-14.171,15.491l1.825,1.67l14.171,-15.491l4.955,4.533Zm0.795,32.673l12.552,-21.293l-1.323,-1.614l-23.361,8.109l1.674,2.042l5.237,-1.891l6.428,7.84l-2.881,4.765l1.674,2.042Zm2.413,-8.723l-5.498,-6.706l12.249,-4.393l-6.751,11.099Zm10.61,29.069l15.48,-19.271l-1.078,-1.786l-24.284,4.67l1.364,2.261l5.454,-1.119l5.236,8.682l-3.535,4.302l1.363,2.261Zm3.64,-8.286l-4.478,-7.426l12.753,-2.589l-8.275,10.015Zm10.401,45.916l22.347,-6.257l-0.667,-2.382l-10.014,2.804l-2.972,-10.615l10.014,-2.804l-0.666,-2.382l-22.348,6.257l0.667,2.382l10.202,-2.856l2.972,10.614l-10.202,2.857l0.667,2.382Zm3.83,26.843l22.274,-10.723l-0.202,-2.077l-23.931,-6.246l0.256,2.629l5.404,1.339l0.985,10.091l-5.043,2.359l0.257,2.628Zm6.858,-5.91l-0.842,-8.631l12.624,3.157l-11.782,5.474Zm-7.401,31.034l23.177,1.266l0.135,-2.474l-18.522,-1.011l19.194,-11.293l0.128,-2.344l-23.177,-1.266l-0.135,2.474l18.587,1.015l-19.259,11.29l-0.128,2.343Zm-5.417,27.8l15.772,-4.869l7.059,9.158l0.693,-2.952l-10.507,-13.584l12.981,3.048l0.565,-2.408l-22.593,-5.305l-0.565,2.408l6.312,1.482l4.595,6.102l-13.642,4.063l-0.67,2.857Zm-8.04,20.982l2.035,0.869l4.687,-10.972l7.708,3.292l-3.995,9.354l2.035,0.869l3.995,-9.354l7.529,3.216l-4.687,10.972l2.035,0.869l5.658,-13.247l-21.342,-9.115l-5.658,13.247Zm6.85,31.021l1.887,1.155l8.304,-13.565l-1.887,-1.155l-3.507,5.728l-17.905,-10.962l-1.292,2.11l17.906,10.961l-3.506,5.728Zm-14.676,19.758l1.735,1.373l9.868,-12.474l-1.735,-1.372l-4.167,5.266l-16.465,-13.025l-1.535,1.94l16.466,13.025l-4.167,5.267Zm-32.662,3.013l22.137,10.996l1.515,-1.434l-9.76,-22.722l-1.917,1.816l2.261,5.088l-7.36,6.973l-4.959,-2.533l-1.917,1.816Zm8.873,1.783l6.296,-5.964l5.258,11.903l-11.554,-5.939Z" style="fill:#fff;fill-rule:nonzero;"/><path d="M178.268,348c-32.083,0 -63.435,-9.567 -90.666,-27.666l0.572,-0.86c27.061,17.986 58.215,27.493 90.094,27.493c30.779,0 61.004,-8.902 87.407,-25.742l0.555,0.871c-26.568,16.946 -56.985,25.904 -87.962,25.904Z" style="fill:#fff;fill-rule:nonzero;"/><path d="M276.375,178.897c-0.07,-7.262 -0.894,-14.669 -2.572,-22.021c-6.112,-26.803 -29.671,-58.402 -42.932,-56.334c-2.788,0.435 -7.669,1.35 -14.3,9.18c2.384,2.969 4.825,6.245 7.286,9.717c4.853,-48.354 34.388,11.924 42.196,63.206c1.382,1.138 2.65,1.646 4.224,1.974c5.168,1.076 5.994,-4.735 6.098,-5.722Zm-59.291,-44.372c-6.094,-1.75 -12.435,1.805 -18.816,8.615c-2.245,5.494 -4.579,11.693 -6.998,18.721c-10.176,29.551 -22.853,84.275 -41.372,77.54c-1.612,-0.586 -3.148,-1.358 -4.608,-2.299c-2.773,4.601 -5.349,8.221 -7.685,10.441c-1.735,1.704 -4.123,3.47 -6.984,4.772c35.135,34.583 99.845,33.141 96.166,-9.855c-4.503,-52.62 -4.055,-73.848 -3.653,-105.512c-1.859,-1.061 -3.859,-1.899 -6.05,-2.423Zm-82.469,4.247c15.2,-30.611 38.089,-57.368 22.899,-55.628c-8.093,0.928 -16.537,3.541 -24.772,7.634c3.512,-1.71 7.12,-3.196 10.811,-4.418c0,0 -31.521,12.97 -43.299,49.992c4.361,-4.233 9.51,-8.316 15.599,-12.175c26.15,-16.575 -0.462,16.536 -6.302,58.452c5.25,-6.787 11.897,-17.329 19.453,-28.831c1.451,-5.314 3.308,-10.388 5.611,-15.026Z" style="fill:#fff;fill-rule:nonzero;"/><path d="M203.324,96.679c-44.783,-27.274 -101.784,126.002 -106.053,87.463c-11.005,-74.27 46.282,-97.781 46.282,-97.781c-36.817,12.179 -65.789,49.636 -65.133,92.875c0.66,43.469 24.925,68.394 33.671,72.721c11.069,5.474 20.742,0.275 25.514,-4.413c18.36,-17.456 51.525,-121.046 79.479,-113.02c31.28,7.492 27.137,73.472 28.647,86.115c3.009,25.204 10.063,22.195 19.885,3.679c6.587,-12.416 10.868,-26.72 10.774,-45.577c0,0 -0.471,7.055 -6.113,5.878c-5.069,-1.055 -6.962,-3.955 -19.715,-23.903c-13.349,-20.878 -33.763,-55.832 -47.238,-64.037Z" style="fill:#fff;fill-rule:nonzero;"/></g></svg>