<svg viewBox="0 0 360 348" xmlns="http://www.w3.org/2000/svg" fill-rule="evenodd" clip-rule="evenodd" stroke-linejoin="round" stroke-miterlimit="1.414"><g fill="#fff" fill-rule="nonzero"><path d="M54.092 291.434c-3.574 3.386-5.231 4.956-5.318 8.041-.058 2.211.741 4.284 2.333 5.965 1.593 1.681 3.62 2.591 5.83 2.652 3.086.081 4.743-1.489 8.317-4.875 3.575-3.386 5.232-4.956 5.318-8.041.058-2.211-.741-4.284-2.333-5.965s-3.62-2.591-5.83-2.652c-3.086-.081-4.743 1.489-8.317 4.875zm1.701 1.796c3.527-3.342 4.776-4.3 6.874-4.266 1.452.017 2.911.656 3.966 1.769 1.054 1.112 1.613 2.604 1.551 4.055-.08 2.097-1.104 3.292-4.631 6.633-3.527 3.342-4.775 4.3-6.873 4.266-1.453-.017-2.912-.656-3.966-1.769-1.054-1.112-1.614-2.604-1.552-4.055.08-2.097 1.104-3.292 4.631-6.633zm-22.375-21.366c-3.467 2.326-4.025 6.228-1.663 9.749l4.812 7.173 19.272-12.929-1.377-2.054-7.933 5.321-3.434-5.118c-2.361-3.521-6.21-4.468-9.677-2.142zm1.378 2.054c2.546-1.708 4.972-.901 6.589 1.51l3.307 4.929-7.666 5.142-3.306-4.93c-1.617-2.41-1.47-4.943 1.076-6.651zm1.337-31.852l-1.997.953 5.142 10.767-7.564 3.612-4.383-9.178-1.997.954 4.383 9.179-7.387 3.527-5.142-10.767-1.997.954 6.208 12.999 20.942-10.001-6.208-12.999zM8.524 226.592l-2.115.649 4.668 15.205 2.115-.65-1.971-6.42 20.07-6.161-.726-2.365-20.07 6.162-1.971-6.42zm8.013-29.063l-15.381 2.289.365 2.451 15.187-2.261c3.482-.518 6.103 1.366 6.602 4.719.499 3.354-1.464 5.887-4.946 6.406l-15.188 2.26.365 2.451 15.381-2.29c4.579-.681 7.272-4.51 6.581-9.153-.692-4.643-4.388-7.554-8.966-6.872zm.511-25.755c-1.923-.007-3.524.671-4.604 1.938-.852.975-1.312 2.049-1.647 4.232l-.401 2.541c-.2 1.205-.662 2.41-1.284 3.124-.622.715-1.536 1.038-2.677 1.033-2.575-.01-4.296-1.81-4.284-4.907.01-2.445.7-3.974 2.01-5.403l-1.591-1.604C.769 174.709.011 176.663 0 179.629c-.017 4.597 2.579 7.443 6.523 7.459 1.858.007 3.295-.574 4.343-1.744.884-1.007 1.476-2.439 1.777-4.263l.434-2.705c.268-1.694.466-2.28 1.121-3.027.655-.747 1.699-1.102 2.905-1.097 2.706.011 4.295 2.103 4.282 5.494-.01 2.608-.637 4.398-2.568 6.314l1.689 1.702c2.193-2.176 3.082-4.454 3.096-7.942.019-4.825-2.479-8.03-6.554-8.046zm9.832-25.131l-22.834-4.169-.445 2.437 10.23 1.868-1.979 10.84-10.23-1.868-.445 2.437 22.834 4.169.445-2.437-10.423-1.903 1.979-10.84 10.423 1.903.445-2.437zm7.873-25.943l-24.712.532-.676 1.974 19.188 15.599.856-2.499-4.364-3.458 3.285-9.592 5.567-.057.856-2.499zm-8.687 2.539l-2.809 8.204-10.182-8.104 12.991-.1zm18.795-22.465l-1.941-1.063-5.699 10.408-18.414-10.084-1.188 2.17 20.354 11.147 6.888-12.578zm13.036-18.837l-1.768-1.331-7.137 9.48L32.22 77.457l-1.488 1.977 18.54 13.959 8.625-11.456zm7.293-8.308L48.445 57.562l-1.712 1.785 16.745 16.067 1.712-1.785zm4.22-32.576l-1.443-1.677-12.055 10.375 1.443 1.677 5.09-4.381L76.14 62.96l1.875-1.614L64.32 45.433l5.09-4.38zm30.129-4.132l-8.03-13.317-2.118 1.278L97.32 38.03c1.818 3.016 1.086 6.16-1.818 7.911-2.904 1.752-5.999.915-7.817-2.1l-7.929-13.149-2.118 1.277 8.03 13.317c2.39 3.964 6.955 4.975 10.977 2.55 4.021-2.425 5.285-6.951 2.894-10.915zm23.82-9.658c-.743-1.774-1.991-2.984-3.577-3.486-1.229-.404-2.398-.41-4.54.134l-2.497.621c-1.189.286-2.478.331-3.379.037-.901-.295-1.555-1.011-1.996-2.063-.995-2.376-.008-4.663 2.85-5.86 2.256-.945 3.934-.905 5.762-.257l.854-2.09c-2.524-.884-4.618-.818-7.355.328-4.242 1.777-5.848 5.273-4.324 8.912.718 1.714 1.812 2.811 3.296 3.321 1.271.422 2.822.409 4.62-.026l2.66-.654c1.665-.415 2.282-.461 3.226-.149.944.311 1.678 1.135 2.144 2.248 1.045 2.496-.263 4.776-3.391 6.086-2.407 1.008-4.301 1.13-6.816.097l-.907 2.219c2.855 1.169 5.298 1.099 8.517-.249 4.452-1.865 6.427-5.409 4.853-9.169zm43.344-3.025l-6.755-9.777c2.901-.981 4.668-3.433 4.254-6.798-.49-3.979-3.604-6.058-7.616-5.565l-8.833 1.089 2.837 23.036 2.459-.303-1.259-10.224 5.532-.682 6.501 9.579 2.88-.355zm-4.956-16.239c.346 2.815-1.391 4.441-4.077 4.772l-6.147.757-1.04-8.445 6.147-.757c2.686-.33 4.77.858 5.117 3.673zm30.509 16.16L184.43.708l-2.085-.06-9.217 22.951 2.64.077 2.011-5.192 10.134.297 1.704 5.3 2.639.078zm-4.997-7.55l-8.668-.254 4.725-12.124 3.943 12.378zm28.64 11.439l4.739-22.718-2.422-.505-2.123 10.18-10.791-2.25 2.124-10.18-2.422-.505-4.738 22.717 2.421.506 2.163-10.372 10.791 2.25-2.163 10.372 2.421.505zm29.032-2.751c1.71-4.617 2.502-6.758 1.216-9.563-.925-2.009-2.558-3.516-4.73-4.319-2.171-.804-4.391-.724-6.401.198-2.804 1.291-3.596 3.432-5.306 8.049-1.709 4.618-2.502 6.758-1.215 9.564.925 2.008 2.558 3.515 4.729 4.319 2.172.804 4.392.724 6.402-.198 2.804-1.292 3.596-3.432 5.305-8.05zm-2.319-.858c-1.687 4.556-2.383 5.967-4.28 6.864-1.311.628-2.902.699-4.339.167-1.438-.532-2.599-1.623-3.185-2.952-.855-1.916-.465-3.441 1.222-7.997s2.383-5.967 4.28-6.864c1.31-.628 2.902-.699 4.339-.167 1.438.532 2.599 1.622 3.185 2.952.855 1.916.465 3.44-1.222 7.997zm9.559 17.294l11.147-20.355-2.17-1.188-11.146 20.355 2.169 1.188zm32.567-4.406l1.245-1.83-13.15-8.947-1.245 1.83 5.552 3.778-11.809 17.357 2.045 1.392 11.809-17.358 5.553 3.778zm19.085 16.32l1.493-1.633-11.735-10.735-1.494 1.633 4.956 4.532-14.171 15.491 1.825 1.67 14.171-15.491 4.955 4.533zm.795 32.673l12.552-21.293-1.323-1.614-23.361 8.109 1.674 2.042 5.237-1.891 6.428 7.84-2.881 4.765 1.674 2.042zm2.413-8.723l-5.498-6.706 12.249-4.393-6.751 11.099zm10.61 29.069l15.48-19.271-1.078-1.786-24.284 4.67 1.364 2.261 5.454-1.119 5.236 8.682-3.535 4.302 1.363 2.261zm3.64-8.286l-4.478-7.426 12.753-2.589-8.275 10.015zm10.401 45.916l22.347-6.257-.667-2.382-10.014 2.804-2.972-10.615 10.014-2.804-.666-2.382-22.348 6.257.667 2.382 10.202-2.856 2.972 10.614-10.202 2.857.667 2.382zm3.83 26.843l22.274-10.723-.202-2.077-23.931-6.246.256 2.629 5.404 1.339.985 10.091-5.043 2.359.257 2.628zm6.858-5.91l-.842-8.631 12.624 3.157-11.782 5.474zm-7.401 31.034l23.177 1.266.135-2.474-18.522-1.011 19.194-11.293.128-2.344-23.177-1.266-.135 2.474 18.587 1.015-19.259 11.29-.128 2.343zm-5.417 27.8l15.772-4.869 7.059 9.158.693-2.952-10.507-13.584 12.981 3.048.565-2.408-22.593-5.305-.565 2.408 6.312 1.482 4.595 6.102-13.642 4.063-.67 2.857zm-8.04 20.982l2.035.869 4.687-10.972 7.708 3.292-3.995 9.354 2.035.869 3.995-9.354 7.529 3.216-4.687 10.972 2.035.869 5.658-13.247-21.342-9.115-5.658 13.247zm6.85 31.021l1.887 1.155 8.304-13.565-1.887-1.155-3.507 5.728-17.905-10.962-1.292 2.11 17.906 10.961-3.506 5.728zm-14.676 19.758l1.735 1.373 9.868-12.474-1.735-1.372-4.167 5.266-16.465-13.025-1.535 1.94 16.466 13.025-4.167 5.267zm-32.662 3.013l22.137 10.996 1.515-1.434-9.76-22.722-1.917 1.816 2.261 5.088-7.36 6.973-4.959-2.533-1.917 1.816zm8.873 1.783l6.296-5.964 5.258 11.903-11.554-5.939zM178.268 348c-32.083 0-63.435-9.567-90.666-27.666l.572-.86c27.061 17.986 58.215 27.493 90.094 27.493 30.779 0 61.004-8.902 87.407-25.742l.555.871C239.662 339.042 209.245 348 178.268 348zm98.107-169.103a103.55 103.55 0 0 0-2.572-22.021c-6.112-26.803-29.671-58.402-42.932-56.334-2.788.435-7.669 1.35-14.3 9.18 2.384 2.969 4.825 6.245 7.286 9.717 4.853-48.354 34.388 11.924 42.196 63.206 1.382 1.138 2.65 1.646 4.224 1.974 5.168 1.076 5.994-4.735 6.098-5.722zm-59.291-44.372c-6.094-1.75-12.435 1.805-18.816 8.615-2.245 5.494-4.579 11.693-6.998 18.721-10.176 29.551-22.853 84.275-41.372 77.54a23.001 23.001 0 0 1-4.608-2.299c-2.773 4.601-5.349 8.221-7.685 10.441-1.735 1.704-4.123 3.47-6.984 4.772 35.135 34.583 99.845 33.141 96.166-9.855-4.503-52.62-4.055-73.848-3.653-105.512-1.859-1.061-3.859-1.899-6.05-2.423zm-82.469 4.247c15.2-30.611 38.089-57.368 22.899-55.628-8.093.928-16.537 3.541-24.772 7.634a87.624 87.624 0 0 1 10.811-4.418s-31.521 12.97-43.299 49.992c4.361-4.233 9.51-8.316 15.599-12.175 26.15-16.575-.462 16.536-6.302 58.452 5.25-6.787 11.897-17.329 19.453-28.831 1.451-5.314 3.308-10.388 5.611-15.026z"/><path d="M203.324 96.679C158.541 69.405 101.54 222.681 97.271 184.142c-11.005-74.27 46.282-97.781 46.282-97.781-36.817 12.179-65.789 49.636-65.133 92.875.66 43.469 24.925 68.394 33.671 72.721 11.069 5.474 20.742.275 25.514-4.413 18.36-17.456 51.525-121.046 79.479-113.02 31.28 7.492 27.137 73.472 28.647 86.115 3.009 25.204 10.063 22.195 19.885 3.679 6.587-12.416 10.868-26.72 10.774-45.577 0 0-.471 7.055-6.113 5.878-5.069-1.055-6.962-3.955-19.715-23.903-13.349-20.878-33.763-55.832-47.238-64.037z"/></g></svg>