<svg fill="#e42823" width="100" height="100" viewBox="0 0 24 24" xmlns="http://www.w3.org/2000/svg"><path d="M-12.5-59.471V9.038h.609c5.992 0 5.992 7.675 11.985 7.675 5.992 0 5.992-7.675 11.985-7.675 5.992 0 5.992 7.675 11.985 7.675 5.991 0 5.991-7.675 11.984-7.675 5.992 0 5.992 7.675 11.985 7.675 5.992 0 5.992-7.675 11.985-7.675 5.992 0 5.992 7.675 11.983 7.675 5.993 0 5.993-7.675 11.985-7.675 5.993 0 5.993 7.675 11.985 7.675 5.993 0 5.993-7.675 11.985-7.675 5.993 0 5.993 7.675 11.986 7.675 5.992 0 5.992-7.675 11.979-7.675 5.987 0 5.987 7.675 11.98 7.675 5.992 0 5.992-7.675 11.985-7.675 5.991 0 5.991 7.675 11.984 7.675 5.992 0 5.992-7.675 11.984-7.675s5.992 7.675 11.985 7.675c5.991 0 5.991-7.675 11.984-7.675 5.992 0 5.992 7.675 11.984 7.675 5.993 0 5.993-7.675 11.985-7.675 5.993 0 5.993 7.675 11.984 7.675 5.994 0 5.994-7.675 11.985-7.675 5.993 0 5.993 7.675 11.985 7.675 5.993 0 5.993-7.675 11.986-7.675h-.497 1.106c5.992 0 5.992 7.675 11.984 7.675 5.993 0 5.993-7.675 11.985-7.675 5.993 0 5.993 7.675 11.984 7.675 5.993 0 5.993-7.675 11.985-7.675 5.993 0 5.993 7.675 11.985 7.675 5.993 0 5.993-7.675 11.985-7.675 5.991 0 5.991 7.675 11.985 7.675 5.991 0 5.991-7.675 11.984-7.675 5.992 0 5.992 7.675 11.985 7.675 5.992 0 5.992-7.675 11.985-7.675 5.992 0 5.992 7.675 11.985 7.675 5.991 0 5.991-7.675 11.979-7.675 5.988 0 5.988 7.675 11.981 7.675 5.992 0 5.992-7.675 11.983-7.675 5.992 0 5.992 7.675 11.985 7.675 5.992 0 5.992-7.675 11.985-7.675 5.992 0 5.992 7.675 11.983 7.675 5.994 0 5.994-7.675 11.985-7.675 5.992 0 5.992 7.675 11.985 7.675 5.992 0 5.992-7.675 11.984-7.675 5.993 0 5.993 7.675 11.984 7.675 5.993 0 5.993-7.675 11.985-7.675 5.993 0 5.993 7.675 11.986 7.675s5.993-7.675 11.985-7.675h-.496v-68.509H-12.5z" fill="#00D7A7"/></svg>